PathFileType  4	(X/Y/Z) C:\Users\antoi\Documents\MyRepositories\mobilecap\ResultsAnalysis
DataRate	CameraRate	NumFrames	NumMarkers	Units	OrigDataRate	OrigDataStartFrame	OrigNumFrames
100.0	100.0	4	51	mm	100.0	67	132
Frame#	Time	r_knee			r_shank_antsup			r_ankle			r_calc			r_5meta			r_toe			L_knee			L_shank_antsup			L_ankle			L_calc			L_5meta			L_toe			r_sh2			r_sh3			r_sh4			L_sh2			L_sh3			r_thigh1			r_thigh2			r_thigh3			r_thigh4			r_thigh5			L_thigh1			L_thigh2			L_thigh3			L_thigh4			r.ASIS			r.PSIS			L.ASIS			L.PSIS			C7			R_Shoulder			L_Shoulder			R_Sternum			L_Sternum			R_humerus			R_elbow_med			R_elbow_lat			R_forearm			R_wrist_radius			R_wrist_ulna			L_humerus			L_elbow_med			L_elbow_lat			L_forearm			L_wrist_radius			L_wrist_ulna			R_HJC			L_HJC			R_HJC_reg			L_HJC_reg			
		X1	Y1	Z1	X2	Y2	Z2	X3	Y3	Z3	X4	Y4	Z4	X5	Y5	Z5	X6	Y6	Z6	X7	Y7	Z7	X8	Y8	Z8	X9	Y9	Z9	X10	Y10	Z10	X11	Y11	Z11	X12	Y12	Z12	X13	Y13	Z13	X14	Y14	Z14	X15	Y15	Z15	X16	Y16	Z16	X17	Y17	Z17	X18	Y18	Z18	X19	Y19	Z19	X20	Y20	Z20	X21	Y21	Z21	X22	Y22	Z22	X23	Y23	Z23	X24	Y24	Z24	X25	Y25	Z25	X26	Y26	Z26	X27	Y27	Z27	X28	Y28	Z28	X29	Y29	Z29	X30	Y30	Z30	X31	Y31	Z31	X32	Y32	Z32	X33	Y33	Z33	X34	Y34	Z34	X35	Y35	Z35	X36	Y36	Z36	X37	Y37	Z37	X38	Y38	Z38	X39	Y39	Z39	X40	Y40	Z40	X41	Y41	Z41	X42	Y42	Z42	X43	Y43	Z43	X44	Y44	Z44	X45	Y45	Z45	X46	Y46	Z46	X47	Y47	Z47	X48	Y48	Z48	X49	Y49	Z49	X50	Y50	Z50	X51	Y51	Z51	

67	0.66000000	558.07575	461.88149	-104.86109	522.28568	362.75823	-113.58119	244.61114	190.17446	-154.36967	187.59681	216.38363	-209.71768	272.44544	59.82413	-122.60558	324.75818	62.77386	-169.74532	814.32518	498.07880	-348.02101	862.80940	418.62125	-325.18327	811.01694	95.27866	-308.05131	737.62371	50.43353	-259.42602	916.36020	40.47638	-342.96707	962.55232	67.72694	-285.40370	437.81913	287.25928	-125.30246	473.72967	410.13408	-80.69617	383.47062	339.92017	-89.23454	786.20349	423.98106	-375.46912	787.78069	303.10700	-373.93970	660.38925	730.54727	-71.11482	656.15859	621.44586	-84.20258	596.12297	596.87810	-62.00662	547.46302	731.00695	-56.31645	545.68472	619.08878	-81.23223	789.54050	750.74707	-379.27930	846.20281	627.65964	-341.82282	702.39300	698.61879	-422.76491	754.25545	582.09562	-381.81149	714.30311	928.63582	-101.62930	514.88088	965.66211	-201.95737	735.21732	944.86325	-356.08885	525.01588	964.37856	-296.51678	539.92587	1424.45830	-247.35066	601.01512	1399.07768	-79.22055	623.41527	1392.30531	-397.83290	668.56317	1355.52394	-215.90727	669.35608	1356.93233	-262.68264	647.77869	1275.28704	-22.28678	601.25109	1061.34006	-54.29885	606.69093	1075.57600	11.65987	682.27330	1032.78121	31.01882	789.41076	901.62466	-0.72868	758.13343	888.77461	36.19160	639.15842	1250.36332	-458.75027	548.68918	1059.15220	-413.92944	558.99997	1073.32928	-492.60861	595.04212	1010.64759	-515.76645	597.25513	830.85237	-518.22356	560.72154	847.50706	-550.40044	634.94181	842.55356	-141.20554	653.89804	853.54382	-329.47878	640.78205	862.49790	-144.63473	658.77963	860.20985	-312.48827	
68	0.67000000	585.33107	459.59330	-102.28499	547.41614	361.53645	-111.42758	264.68254	199.70460	-150.84354	210.75437	232.25802	-205.77987	279.85503	66.67382	-121.71097	332.20085	64.95063	-168.59272	822.07760	497.94108	-349.30453	869.58775	417.45004	-325.75204	811.12448	95.10601	-308.28435	737.58322	50.43006	-259.55164	916.28141	40.39192	-343.12883	962.62330	67.52067	-285.50663	460.34824	288.94738	-122.88940	500.72181	410.28916	-78.21216	408.15116	343.19206	-86.25761	793.47738	423.93940	-376.84618	792.86298	303.15092	-375.00018	679.14253	731.39663	-71.63524	678.44990	621.73276	-83.17013	618.91931	595.84765	-61.00151	566.10061	728.60065	-57.35604	567.84104	617.02107	-80.19031	801.34502	751.35208	-380.20178	856.09747	627.31162	-343.12529	713.37645	700.63691	-424.07484	763.37271	583.15997	-383.44076	728.81603	930.30335	-103.88569	528.80044	966.21852	-200.97785	748.17336	947.50521	-357.86490	538.20300	966.31651	-295.95889	553.05893	1426.01020	-248.75140	613.86417	1401.12072	-80.61863	636.82470	1394.11721	-398.96414	681.72537	1357.48541	-217.11096	682.64573	1358.93298	-263.83518	659.38048	1276.94169	-23.04788	610.20129	1063.79085	-56.15111	615.58163	1077.65143	10.00064	690.09540	1033.12641	29.66465	794.06910	899.27153	-1.82226	762.71402	887.51677	35.10448	654.38838	1252.33953	-459.43006	565.80725	1060.24188	-414.50556	577.22371	1073.89862	-493.03977	614.50019	1011.68141	-515.33128	620.60076	832.02092	-516.41069	584.20746	847.78581	-549.04992	650.03068	843.79799	-142.52653	667.12493	855.87064	-330.91822	656.16730	862.71968	-147.14413	672.76894	862.88123	-314.80280	
69	0.68000000	613.03214	457.61330	-99.62560	573.60766	360.58167	-109.54597	286.67739	208.81377	-147.36483	236.07817	247.15430	-201.92739	289.50270	74.21170	-120.56933	341.58100	67.83590	-167.29066	828.82160	497.57594	-350.66490	875.42635	416.19501	-326.63922	811.19848	94.90654	-308.50279	737.54461	50.43812	-259.67976	916.21665	40.32144	-343.27081	962.67044	67.33648	-285.60680	484.19832	290.70869	-120.72635	528.70512	410.33280	-75.62118	434.11552	346.17134	-83.19383	799.58122	423.65420	-378.10943	797.10828	303.05256	-375.89026	697.78186	732.48204	-72.01938	700.76479	622.34683	-82.15105	641.82554	595.10634	-59.83971	584.67211	726.27709	-58.38801	590.16605	615.17655	-78.99987	812.51232	751.65338	-381.19643	865.11522	626.58852	-344.51291	723.64954	702.48720	-425.38271	771.55917	584.02069	-385.04990	742.76646	932.02767	-106.07248	542.40365	966.79200	-200.20756	760.87080	949.97254	-359.57802	551.19418	968.27147	-295.54386	566.05487	1427.54735	-250.11037	626.38452	1403.12553	-81.92070	650.24876	1395.96973	-399.99407	694.74332	1359.42817	-218.16633	695.83279	1360.93113	-264.83512	670.78826	1278.60036	-23.78567	619.17461	1066.24339	-58.01271	624.49035	1079.75272	8.34697	697.84013	1033.48440	28.32553	798.40540	896.84661	-2.90282	766.82443	886.11141	34.06676	669.70788	1254.38673	-460.00503	582.97907	1061.38964	-415.11738	595.57796	1074.57515	-493.46254	634.17805	1012.87714	-514.80017	644.23320	833.38245	-514.40488	608.19457	848.26683	-547.53870	664.60961	845.09205	-143.81988	680.05743	858.09459	-332.30003	671.03922	862.90946	-149.73234	686.47703	865.49481	-317.14502	
70	0.69000000	640.83277	456.17471	-97.01800	600.57175	360.03706	-107.97233	310.25868	217.26520	-144.07214	262.84020	260.43194	-198.36430	302.05043	82.03801	-119.04846	353.57436	71.39722	-165.74486	834.70975	497.08693	-352.06194	880.35433	414.91117	-327.91602	811.24570	94.68718	-308.72386	737.51776	50.46190	-259.79789	916.17664	40.24183	-343.40731	962.70916	67.13525	-285.70981	509.14282	292.56568	-118.85280	557.31081	410.39641	-72.98081	461.00896	348.86394	-80.16746	804.49757	423.25182	-379.25212	800.43286	302.90307	-376.62405	716.17501	733.86606	-72.30399	722.85462	623.44114	-81.20632	664.61555	594.76682	-58.60305	603.08437	724.18693	-59.36519	612.49349	613.55402	-77.84879	823.07791	751.74656	-382.24450	873.36903	625.63229	-345.93832	733.32972	704.20462	-426.67492	779.03801	584.76137	-386.62885	756.13986	933.72734	-108.09668	555.67418	967.42033	-199.67729	773.34173	952.18720	-361.15613	563.99909	970.25661	-295.29229	578.93222	1429.08351	-251.41926	638.60144	1405.06135	-83.08795	663.70356	1397.81408	-400.92728	707.63040	1361.34349	-219.06797	708.87226	1362.88526	-265.68609	681.99551	1280.21257	-24.47376	628.22254	1068.61220	-59.86318	633.43109	1081.82444	6.71122	705.53304	1033.82222	27.01169	802.46208	894.36790	-3.94822	770.51197	884.56700	33.10353	685.11950	1256.43373	-460.44027	600.18774	1062.53075	-415.77955	614.03472	1075.32119	-493.88541	654.06644	1014.20010	-514.17368	668.11738	834.92699	-512.20827	632.59537	848.90974	-545.88205	678.59834	846.40117	-145.04580	692.68900	860.17126	-333.58544	685.33321	863.04681	-152.31445	699.88289	867.99327	-319.44337	
